<svg width="48" height="48" viewBox="0 0 48 48" fill="none" xmlns="http://www.w3.org/2000/svg">
<g id="fa6-solid:disease" clip-path="url(#clip0_147_886)">
<path id="Vector" d="M22.1624 5.75625L21.2812 7.07812C19.2843 10.0781 15.7124 11.625 12.1593 11.025L6.5718 10.0969C3.13117 9.525 -7.66581e-05 12.1781 0.00929834 15.6656C0.00929834 17.1562 0.609299 18.5906 1.6593 19.65L4.3968 22.3875C5.42805 23.4188 6.0093 24.8156 6.0093 26.2781C6.0093 27.7594 5.4093 29.175 4.34992 30.2156L3.1218 31.4156C2.08117 32.4281 1.49992 33.8156 1.49992 35.2688C1.49992 38.7188 4.6968 41.2875 8.0718 40.5375L13.9124 39.2438C14.6343 39.0844 15.3843 39 16.1249 39H17.0624C19.6124 39 22.0968 39.8719 24.0937 41.4656L26.9812 43.7812C27.9655 44.5687 29.1937 45 30.4499 45C33.5155 45 36.0093 42.5156 36.0093 39.4406V37.0781C36.0093 33.8062 38.0155 30.8719 41.0624 29.6906L44.5218 28.35C46.6218 27.5344 48.0093 25.5094 48.0093 23.2594C48.0093 20.625 46.1249 18.3563 43.528 17.8875L40.903 17.4094C37.4812 16.7812 34.7718 14.175 34.0031 10.7812L33.3374 7.82812C32.7093 5.00625 30.1968 3 27.3093 3C25.2468 3 23.3155 4.03125 22.1624 5.75625ZM14.9999 18C15.7956 18 16.5586 18.3161 17.1212 18.8787C17.6839 19.4413 17.9999 20.2043 17.9999 21C17.9999 21.7957 17.6839 22.5587 17.1212 23.1213C16.5586 23.6839 15.7956 24 14.9999 24C14.2043 24 13.4412 23.6839 12.8786 23.1213C12.316 22.5587 11.9999 21.7957 11.9999 21C11.9999 20.2043 12.316 19.4413 12.8786 18.8787C13.4412 18.3161 14.2043 18 14.9999 18ZM26.9999 19.5C26.9999 19.1022 27.158 18.7206 27.4393 18.4393C27.7206 18.158 28.1021 18 28.4999 18C28.8978 18 29.2793 18.158 29.5606 18.4393C29.8419 18.7206 29.9999 19.1022 29.9999 19.5C29.9999 19.8978 29.8419 20.2794 29.5606 20.5607C29.2793 20.842 28.8978 21 28.4999 21C28.1021 21 27.7206 20.842 27.4393 20.5607C27.158 20.2794 26.9999 19.8978 26.9999 19.5ZM26.9999 27C27.7956 27 28.5586 27.3161 29.1212 27.8787C29.6839 28.4413 29.9999 29.2043 29.9999 30C29.9999 30.7957 29.6839 31.5587 29.1212 32.1213C28.5586 32.6839 27.7956 33 26.9999 33C26.2043 33 25.4412 32.6839 24.8786 32.1213C24.316 31.5587 23.9999 30.7957 23.9999 30C23.9999 29.2043 24.316 28.4413 24.8786 27.8787C25.4412 27.3161 26.2043 27 26.9999 27Z" fill="#0079D6"/>
</g>
<defs>
<clipPath id="clip0_147_886">
<rect width="48" height="48" fill="white"/>
</clipPath>
</defs>
</svg>
