<svg width="48" height="48" viewBox="0 0 48 48" fill="none" xmlns="http://www.w3.org/2000/svg">
<g id="healthicons:sexual-reproductive-health">
<g id="Group">
<path id="Vector" fill-rule="evenodd" clip-rule="evenodd" d="M17.5459 15.4798C16.1101 14.9191 14.5293 14.848 13.049 15.2776C11.5686 15.7071 10.2714 16.6133 9.35867 17.8555C8.44596 19.0976 7.96878 20.6063 8.00118 22.1474C8.03358 23.6885 8.57375 25.1758 9.53786 26.3785C10.502 27.5812 11.8361 28.4321 13.3332 28.799C14.8303 29.166 16.4067 29.0285 17.8177 28.408C19.2287 27.7874 20.3954 26.7185 21.1368 25.367C21.8782 24.0156 22.1528 22.4573 21.9179 20.9338C21.898 20.804 21.9038 20.6715 21.935 20.544C21.9662 20.4164 22.0223 20.2962 22.1 20.1903C22.1776 20.0844 22.2754 19.9948 22.3877 19.9267C22.5 19.8586 22.6246 19.8133 22.7544 19.7933C22.8842 19.7734 23.0167 19.7792 23.1443 19.8104C23.2718 19.8416 23.392 19.8977 23.4979 19.9754C23.6038 20.053 23.6934 20.1508 23.7615 20.2631C23.8296 20.3754 23.875 20.5 23.8949 20.6298C24.1965 22.5885 23.8432 24.5919 22.8898 26.3293C21.9364 28.0666 20.4363 29.4407 18.6221 30.2383C16.808 31.036 14.7813 31.2125 12.8566 30.7406C10.9318 30.2687 9.21666 29.1747 7.97722 27.6284C6.73778 26.082 6.04337 24.1699 6.00174 22.1885C5.96012 20.2072 6.57361 18.2676 7.74701 16.6706C8.92042 15.0736 10.5881 13.9085 12.4913 13.3561C14.3946 12.8038 16.4269 12.8951 18.2729 13.6158C18.3969 13.6623 18.5105 13.733 18.6069 13.8237C18.7034 13.9145 18.7809 14.0235 18.8349 14.1444C18.8889 14.2653 18.9183 14.3958 18.9215 14.5282C18.9246 14.6606 18.9015 14.7923 18.8533 14.9157C18.8052 15.039 18.733 15.1516 18.641 15.2469C18.549 15.3421 18.439 15.4182 18.3174 15.4706C18.1957 15.5229 18.0649 15.5507 17.9325 15.5521C17.8 15.5535 17.6686 15.5296 17.5459 15.4798Z" fill="#0079D6"/>
<path id="Vector_2" fill-rule="evenodd" clip-rule="evenodd" d="M14 39V31C14 30.7348 14.1054 30.4804 14.2929 30.2929C14.4804 30.1054 14.7348 30 15 30C15.2652 30 15.5196 30.1054 15.7071 30.2929C15.8946 30.4804 16 30.7348 16 31V39C16 39.2652 15.8946 39.5196 15.7071 39.7071C15.5196 39.8946 15.2652 40 15 40C14.7348 40 14.4804 39.8946 14.2929 39.7071C14.1054 39.5196 14 39.2652 14 39Z" fill="#0079D6"/>
<path id="Vector_3" fill-rule="evenodd" clip-rule="evenodd" d="M11 34C11 33.7348 11.1054 33.4804 11.2929 33.2929C11.4804 33.1054 11.7348 33 12 33H18C18.2652 33 18.5196 33.1054 18.7071 33.2929C18.8946 33.4804 19 33.7348 19 34C19 34.2652 18.8946 34.5196 18.7071 34.7071C18.5196 34.8947 18.2652 35 18 35H12C11.7348 35 11.4804 34.8947 11.2929 34.7071C11.1054 34.5196 11 34.2652 11 34ZM28.902 15.263C27.7938 14.9502 26.6255 14.9155 25.5007 15.1622C24.3759 15.4089 23.3293 15.9292 22.4538 16.6771C21.5782 17.425 20.9006 18.3774 20.4811 19.4498C20.0617 20.5222 19.9132 21.6815 20.049 22.825C20.0652 22.9558 20.0555 23.0884 20.0202 23.2154C19.985 23.3424 19.9251 23.4611 19.8438 23.5649C19.7626 23.6686 19.6616 23.7552 19.5468 23.8198C19.4319 23.8844 19.3055 23.9256 19.1746 23.9412C19.0438 23.9567 18.9112 23.9463 18.7844 23.9104C18.6576 23.8745 18.5391 23.814 18.4358 23.7322C18.3325 23.6504 18.2464 23.549 18.1824 23.4338C18.1185 23.3186 18.0779 23.1919 18.063 23.061C17.8294 21.093 18.2518 19.103 19.2648 17.3997C20.2778 15.6963 21.8247 14.375 23.6654 13.6406C25.5061 12.9063 27.5378 12.8001 29.445 13.3384C31.3523 13.8768 33.0286 15.0296 34.2137 16.618C35.3988 18.2064 36.0265 20.1415 35.9994 22.1231C35.9723 24.1047 35.2919 26.022 34.0638 27.5773C32.8356 29.1327 31.1285 30.2392 29.2072 30.7252C27.2859 31.2112 25.2579 31.0494 23.438 30.265C23.3174 30.2131 23.2082 30.1379 23.1166 30.0437C23.025 29.9496 22.9529 29.8383 22.9044 29.7163C22.8063 29.4699 22.8101 29.1946 22.915 28.951C23.0199 28.7074 23.2173 28.5155 23.4637 28.4174C23.7101 28.3193 23.9854 28.3231 24.229 28.428C25.1088 28.8071 26.057 29.0015 27.015 28.9993C27.973 28.9971 28.9204 28.7983 29.7984 28.4151C30.6764 28.032 31.4665 27.4727 32.1196 26.7719C32.7728 26.0711 33.2752 25.2437 33.5956 24.3409C33.9161 23.4381 34.0478 22.4791 33.9827 21.5234C33.9175 20.5676 33.6569 19.6354 33.2169 18.7844C32.7769 17.9334 32.1669 17.1818 31.4247 16.5761C30.6825 15.9704 29.8239 15.5235 28.902 15.263Z" fill="#FF253F"/>
<path id="Vector_4" fill-rule="evenodd" clip-rule="evenodd" d="M32.793 17.2066C32.6056 17.0191 32.5002 16.7648 32.5002 16.4996C32.5002 16.2344 32.6056 15.9801 32.793 15.7926L40.293 8.29259C40.3853 8.19708 40.4956 8.1209 40.6176 8.06849C40.7396 8.01608 40.8708 7.9885 41.0036 7.98734C41.1364 7.98619 41.2681 8.01149 41.391 8.06177C41.5139 8.11205 41.6255 8.18631 41.7194 8.2802C41.8133 8.37409 41.8876 8.48574 41.9379 8.60864C41.9881 8.73154 42.0134 8.86321 42.0123 8.99599C42.0111 9.12877 41.9835 9.25999 41.9311 9.382C41.8787 9.504 41.8025 9.61435 41.707 9.70659L34.207 17.2066C34.0195 17.3941 33.7652 17.4994 33.5 17.4994C33.2349 17.4994 32.9806 17.3941 32.793 17.2066Z" fill="#FF253F"/>
<path id="Vector_5" fill-rule="evenodd" clip-rule="evenodd" d="M40.9238 14.9998C40.7925 14.9981 40.6628 14.9706 40.5421 14.9187C40.4215 14.8669 40.3122 14.7918 40.2205 14.6978C40.1289 14.6037 40.0566 14.4925 40.008 14.3705C39.9593 14.2485 39.9351 14.1181 39.9368 13.9868L39.9868 10.0128L36.0128 10.0628C35.7476 10.0663 35.4919 9.96421 35.3019 9.77912C35.112 9.59402 35.0033 9.34103 34.9998 9.07582C34.9964 8.8106 35.0984 8.55488 35.2835 8.3649C35.4686 8.17493 35.7216 8.06626 35.9868 8.06282L42.0128 7.98682L41.9368 14.0128C41.9351 14.1441 41.9076 14.2738 41.8558 14.3945C41.8039 14.5152 41.7288 14.6245 41.6348 14.7161C41.5407 14.8078 41.4295 14.88 41.3075 14.9287C41.1855 14.9774 41.0552 15.0015 40.9238 14.9998Z" fill="#FF253F"/>
<path id="Line 1" d="M12 34H18" stroke="#0079D6" stroke-width="2" stroke-linecap="round"/>
</g>
</g>
</svg>
